M48
METRIC,LZ,000.000
;FILE_FORMAT=3:3
;TYPE=PLATED
;Layer: PTH_Through
;EasyEDA v6.5.42, 2024-05-16 00:57:31
;d9f469ff45594f39a9365f2809714314,1c3c6ee5999b4fae9b5d841b4a43d368,10
;Gerber Generator version 0.2
;Holesize 1 = 0.901 mm
T01C0.901
;Holesize 2 = 0.951 mm
T02C0.951
%
G05
G90
T01
X004826Y030480
X004826Y027940
X004826Y025400
X004826Y022860
X011938Y030480
X011938Y027940
X011938Y025400
X011938Y022860
X-039497Y-019177
X-039497Y-016637
X-039497Y-014097
X-039497Y-011557
X-039497Y-009017
X-031623Y-019177
X-031623Y-016637
X-031623Y-014097
X-031623Y-011557
X-031623Y-009017
X016256Y005461
X016256Y002921
X016510Y-003175
X016510Y-005715
X016383Y-010541
X016383Y-013081
X002540Y-003810
X002540Y006350
X006731Y-007493
X006731Y002667
X010795Y-012827
X010795Y-002667
T02
X-021209Y-029210
X-021209Y-024130
X-021209Y-021590
X-021209Y-026670
X-021209Y-019050
X-005969Y-026670
X-005969Y-029210
X-021209Y-016510
X-005969Y-016510
X-005969Y-019050
X-005969Y-021590
X-005969Y-024130
X-021209Y-013970
X-021209Y-008890
X-021209Y-006350
X-021209Y-003810
X-021209Y-001270
X-021209Y001270
X-021209Y003810
X-021209Y006350
X-021209Y008890
X-021209Y011430
X-021209Y013970
X-021209Y016510
X-021209Y019050
X-021209Y021590
X-021209Y024130
X-021209Y026670
X-021209Y029210
X-005969Y029210
X-005969Y026670
X-005969Y024130
X-005969Y021590
X-005969Y019050
X-005969Y016510
X-005969Y013970
X-005969Y011430
X-005969Y008890
X-005969Y006350
X-005969Y003810
X-005969Y001270
X-005969Y-001270
X-005969Y-003810
X-005969Y-006350
X-005969Y-008890
X-005969Y-013970
X-005969Y-011430
X-021209Y-011430
X-018209Y022860
X-018209Y020320
X-018209Y017780
X-018209Y015240
X-018209Y012700
M30
