G04 Layer: BottomLayer*
G04 EasyEDA v6.5.42, 2024-05-16 00:57:31*
G04 d9f469ff45594f39a9365f2809714314,1c3c6ee5999b4fae9b5d841b4a43d368,10*
G04 Gerber Generator version 0.2*
G04 Scale: 100 percent, Rotated: No, Reflected: No *
G04 Dimensions in millimeters *
G04 leading zeros omitted , absolute positions ,4 integer and 5 decimal *
%FSLAX45Y45*%
%MOMM*%

%ADD10C,0.5000*%
%ADD11C,1.5750*%
%ADD12C,1.5748*%
%ADD13R,1.5748X1.5748*%
%ADD14R,1.5750X1.5750*%
%ADD15C,1.5240*%

%LPD*%
D10*
X-2120900Y-2921000D02*
G01*
X-2946400Y-2921000D01*
X-3949700Y-1917700D01*
X-2120900Y-2667000D02*
G01*
X-2946400Y-2667000D01*
X-3949700Y-1663700D01*
X-596900Y2921000D02*
G01*
X355600Y2921000D01*
X482600Y3048000D01*
X-596900Y2667000D02*
G01*
X355600Y2667000D01*
X482600Y2794000D01*
X1193800Y2794000D02*
G01*
X482600Y2794000D01*
X-2120900Y-2413000D02*
G01*
X-2667000Y-2413000D01*
X-3162300Y-1917700D01*
X1193800Y2540000D02*
G01*
X482600Y2540000D01*
X-596900Y889000D02*
G01*
X482600Y1968500D01*
X482600Y2286000D01*
X1193800Y2286000D02*
G01*
X482600Y2286000D01*
X254000Y-414324D02*
G01*
X1147546Y-414324D01*
X1625600Y63723D01*
X1625600Y292100D01*
X-596900Y-889000D02*
G01*
X-220675Y-889000D01*
X254000Y-414324D01*
X254000Y-414324D02*
G01*
X254000Y-381000D01*
X-596900Y-1143000D02*
G01*
X279400Y-1143000D01*
X673100Y-749300D01*
X673100Y-749300D02*
G01*
X1473200Y-749300D01*
X1651000Y-571500D01*
X1079500Y-1308100D02*
G01*
X1638300Y-1308100D01*
X-596900Y-1397000D02*
G01*
X990600Y-1397000D01*
X1079500Y-1308100D01*
X1079500Y-1308100D02*
G01*
X1079500Y-1282700D01*
X-3162300Y-1155700D02*
G01*
X-3048000Y-1270000D01*
X664436Y-1270000D01*
X880336Y-1054100D01*
X1638300Y-1054100D01*
X482600Y3048000D02*
G01*
X1193800Y3048000D01*
X-596900Y1143000D02*
G01*
X317500Y2057400D01*
X317500Y2374900D01*
X482600Y2540000D01*
X-3949700Y-901700D02*
G01*
X-3162300Y-901700D01*
X-3949700Y-1155700D02*
G01*
X-3162300Y-1155700D01*
X-2120900Y-1905000D02*
G01*
X-2616200Y-1409700D01*
X-3162300Y-1409700D01*
X-2120900Y-2159000D02*
G01*
X-2616200Y-1663700D01*
X-3162300Y-1663700D01*
X1651000Y-317500D02*
G01*
X1816100Y-482600D01*
X1816100Y-901700D01*
X1663700Y-1054100D01*
X1638300Y-1054100D01*
X1079500Y-266700D02*
G01*
X1066800Y0D01*
X673100Y266700D01*
X1625600Y546100D02*
G01*
X1816100Y355600D01*
X1816100Y-76200D01*
X1765300Y-152400D01*
X1651000Y-317500D01*
X673100Y266700D02*
G01*
X304800Y635000D01*
X254000Y635000D01*
X1625600Y546100D02*
G01*
X1625600Y1016000D01*
X1765300Y1155700D01*
X1765300Y2844800D01*
X1536700Y3073400D01*
X1219200Y3073400D01*
X1193800Y3048000D01*
X673100Y266700D02*
G01*
X-355600Y-762000D01*
X-3022600Y-762000D01*
X-3162300Y-901700D01*
X-596900Y2667000D02*
G01*
X-876300Y2387600D01*
X-876300Y736600D01*
X-647700Y508000D01*
X127000Y508000D01*
X254000Y635000D01*
D11*
G01*
X482600Y3048000D03*
G01*
X482600Y2794000D03*
G01*
X482600Y2540000D03*
G01*
X482600Y2286000D03*
G01*
X1193800Y3048000D03*
G01*
X1193800Y2794000D03*
G01*
X1193800Y2540000D03*
G01*
X1193800Y2286000D03*
D12*
G01*
X-3949700Y-1917700D03*
G01*
X-3949700Y-1663700D03*
G01*
X-3949700Y-1409700D03*
G01*
X-3949700Y-1155700D03*
D13*
G01*
X-3949700Y-901700D03*
D12*
G01*
X-3162300Y-1917700D03*
G01*
X-3162300Y-1663700D03*
G01*
X-3162300Y-1409700D03*
G01*
X-3162300Y-1155700D03*
D13*
G01*
X-3162300Y-901700D03*
D14*
G01*
X1625600Y546100D03*
D11*
G01*
X1625600Y292100D03*
D14*
G01*
X1651000Y-317500D03*
D11*
G01*
X1651000Y-571500D03*
D14*
G01*
X1638300Y-1054100D03*
D11*
G01*
X1638300Y-1308100D03*
G01*
X254000Y-381000D03*
G01*
X254000Y635000D03*
G01*
X673100Y-749300D03*
G01*
X673100Y266700D03*
G01*
X1079500Y-1282700D03*
G01*
X1079500Y-266700D03*
D15*
G01*
X-2120900Y-2921000D03*
G01*
X-2120900Y-2413000D03*
G01*
X-2120900Y-2159000D03*
G01*
X-2120900Y-2667000D03*
G01*
X-2120900Y-1905000D03*
G01*
X-596900Y-2667000D03*
G01*
X-596900Y-2921000D03*
G01*
X-2120900Y-1651000D03*
G01*
X-596900Y-1651000D03*
G01*
X-596900Y-1905000D03*
G01*
X-596900Y-2159000D03*
G01*
X-596900Y-2413000D03*
G01*
X-2120900Y-1397000D03*
G01*
X-2120900Y-889000D03*
G01*
X-2120900Y-635000D03*
G01*
X-2120900Y-381000D03*
G01*
X-2120900Y-127000D03*
G01*
X-2120900Y127000D03*
G01*
X-2120900Y381000D03*
G01*
X-2120900Y635000D03*
G01*
X-2120900Y889000D03*
G01*
X-2120900Y1143000D03*
G01*
X-2120900Y1397000D03*
G01*
X-2120900Y1651000D03*
G01*
X-2120900Y1905000D03*
G01*
X-2120900Y2159000D03*
G01*
X-2120900Y2413000D03*
G01*
X-2120900Y2667000D03*
G01*
X-2120900Y2921000D03*
G01*
X-596900Y2921000D03*
G01*
X-596900Y2667000D03*
G01*
X-596900Y2413000D03*
G01*
X-596900Y2159000D03*
G01*
X-596900Y1905000D03*
G01*
X-596900Y1651000D03*
G01*
X-596900Y1397000D03*
G01*
X-596900Y1143000D03*
G01*
X-596900Y889000D03*
G01*
X-596900Y635000D03*
G01*
X-596900Y381000D03*
G01*
X-596900Y127000D03*
G01*
X-596900Y-127000D03*
G01*
X-596900Y-381000D03*
G01*
X-596900Y-635000D03*
G01*
X-596900Y-889000D03*
G01*
X-596900Y-1397000D03*
G01*
X-596900Y-1143000D03*
G01*
X-2120900Y-1143000D03*
G01*
X-1820900Y2286000D03*
G01*
X-1820900Y2032000D03*
G01*
X-1820900Y1778000D03*
G01*
X-1820900Y1524000D03*
G01*
X-1820900Y1270000D03*
M02*
